<svg xmlns="http://www.w3.org/2000/svg" width="1157" height="675" viewBox="0 0 1157 675">
  <defs>
    <style>
      .cls-1 {
        fill: #6b605d;
      }

      .cls-1, .cls-2, .cls-3 {
        fill-rule: evenodd;
      }

      .cls-2 {
        fill: #735951;
      }

      .cls-3 {
        fill: #ffffe9;
      }
    </style>
  </defs>
  <path class="cls-1" d="M1157,539V675H0V539H1157Z"/>
  <path class="cls-2" d="M0,0V505H1157V0H0Z"/>
  <path class="cls-3" d="M124,376l201,1s46.3-2.742,61-42c0,0,18.749-36.587-5-77,0,0-13.223-26.423-64-30l-124,1s-29.987-3.244-28-33c0,0-2.5-30.842,29-31l186-1V123l-198-1s-37.566,2.854-58,43c0,0-19.483,32.359,10,72,0,0,16.06,23.018,48,28l139,3s27.157-3.959,32,23c0,0,3.418,23.379-15,37,0,0-3.416,6.445-27,7H124v41Z"/>
  <path class="cls-3" d="M1002,123H847s-39.391,2.407-68,32c0,0-38.758,35.68-38,91,0,0-3.613,61.378,51,107,0,0,24.668,20.7,65,23h158l-2-146H861l-1,34,114,1,1,68-123,1s-32.628-2.766-53-34c0,0-20.779-31.251-15-66s23.308-48.812,31-55,34.819-17.338,53-15l134-1V123Z"/>
  <path class="cls-3" d="M1157,505H0v34H1157V505Z"/>
  <path class="cls-3" d="M433,122H638s38.107,6.753,52,28c0,0,24.411,32.707,6,65,0,0-5.406,13.152-18,20,0,0-11.262,8.294-.609,13.705,0.2,0.1.4,0.2,0.609,0.295,11.679,5.4,35.091,27.283,28,65,0,0-7.923,37.251-39,54,0,0-14.617,9.208-36,8H434ZM639,228s20.133-5.069,21-28c0,0,.666-21.311-13-29-14.272-8.03-24.22-6.925-37-7s-133,0-133,0V335l140,1s26.852-2.39,34-11c0,0,15.59-10.2,11-37,0,0-1.4-14.235-17-21a52.77,52.77,0,0,0-18-2l-116-1V230H625S637.28,229.351,639,228Z"/>
</svg>
